<svg xmlns="http://www.w3.org/2000/svg" xmlns:xlink="http://www.w3.org/1999/xlink" width="250" zoomAndPan="magnify" viewBox="0 0 187.5 187.499992" height="250" preserveAspectRatio="xMidYMid meet" version="1.0"><defs><clipPath id="2b93ed685d"><path d="M 30.871094 2.570312 L 155.789062 2.570312 L 155.789062 184.332031 L 30.871094 184.332031 Z M 30.871094 2.570312 " clip-rule="nonzero"/></clipPath></defs><g clip-path="url(#2b93ed685d)"><path fill="#e65900" d="M 74.773438 168.347656 C 76.199219 177.382812 84.039062 184.292969 93.5 184.292969 C 102.957031 184.292969 110.796875 177.382812 112.226562 168.347656 C 112.339844 167.574219 112.148438 166.839844 111.648438 166.222656 C 111.144531 165.605469 110.449219 165.296875 109.675781 165.296875 L 77.359375 165.296875 C 76.585938 165.296875 75.890625 165.605469 75.390625 166.222656 C 74.851562 166.839844 74.65625 167.535156 74.773438 168.347656 Z M 114.117188 136.183594 C 120.101562 136.183594 124.96875 141.046875 124.96875 147.03125 C 124.96875 153.019531 120.101562 157.882812 114.117188 157.882812 L 72.878906 157.882812 C 66.894531 157.882812 62.03125 153.019531 62.03125 147.03125 C 62.03125 143.441406 63.808594 140.238281 66.507812 138.269531 L 109.253906 104.984375 C 112.457031 102.476562 115.894531 99.695312 119.214844 97.222656 C 123.847656 93.480469 127.671875 88.730469 130.335938 83.363281 C 132.960938 77.996094 134.464844 71.855469 134.464844 65.332031 C 134.464844 54.019531 129.871094 43.785156 122.457031 36.371094 C 115.042969 28.957031 104.8125 24.363281 93.5 24.363281 C 82.1875 24.363281 71.953125 28.957031 64.539062 36.371094 C 57.128906 43.785156 52.53125 54.019531 52.53125 65.332031 C 52.53125 73.167969 54.695312 80.464844 58.441406 86.605469 C 62.339844 93.015625 67.976562 98.304688 74.695312 101.742188 C 79.984375 104.484375 82.070312 111.007812 79.367188 116.296875 C 76.625 121.585938 70.101562 123.671875 64.8125 120.96875 C 54.578125 115.679688 45.96875 107.648438 39.984375 97.839844 C 34.230469 88.34375 30.871094 77.222656 30.871094 65.332031 C 30.871094 48.03125 37.898438 32.394531 49.210938 21.042969 C 60.5625 9.730469 76.199219 2.703125 93.5 2.703125 C 110.796875 2.703125 126.433594 9.730469 137.785156 21.042969 C 149.101562 32.355469 156.128906 48.03125 156.128906 65.332031 C 156.128906 75.136719 153.808594 84.480469 149.71875 92.859375 C 145.625 101.164062 139.792969 108.421875 132.691406 114.175781 C 129.175781 117.109375 124.773438 120.390625 121.144531 123.210938 L 104.464844 136.183594 Z M 114.117188 136.183594 " fill-opacity="1" fill-rule="evenodd"/></g></svg>